
<svg viewBox="0 0 749 780" version="1.1" xmlns="http://www.w3.org/2000/svg" xmlns:xlink="http://www.w3.org/1999/xlink">
    <linearGradient x1="-38.1906382%" y1="42.5564848%" x2="139.708462%" y2="53.5408133%" id="gradient">
        <stop stop-color="#EF37A4" offset="0%"></stop>
        <stop stop-color="#FAE62D" offset="100%"></stop>
    </linearGradient>
    <path d="M516.141525,310.210813 C516.773449,313.767659 517.264946,317.324505 517.756442,320.881351 C623.568611,307.870783 722.265784,379.592712 741.083078,485.806688 C760.508891,595.57751 687.275916,700.317266 577.461561,719.762918 C491.402869,734.996516 408.644225,693.133373 367.428735,621.528446 C339.577268,636.902445 308.847036,648.08779 275.79975,653.937866 C114.495288,682.486235 -39.4367266,574.891642 -67.9903312,413.616753 C-96.5439358,252.341863 11.0703872,98.4614701 172.374849,69.9131003 C333.67931,41.3647305 487.58792,148.935924 516.141525,310.210813 Z M488.421815,96.4900624 C445.146721,104.141961 403.861017,75.2893877 396.207715,32.0222273 C388.531008,-11.2449332 417.412277,-52.5230679 460.687371,-60.174967 C503.939061,-67.8268661 545.224764,-38.9742924 552.901471,4.29286809 C560.554773,47.5600286 531.696909,88.8381633 488.421815,96.4900624 Z" fill="url(#gradient)" transform="translate(335.812266, 330.737405) scale(-1, 1) rotate(19.000000) translate(-335.812266, -330.737405) "></path>
</svg>
